<svg width="600" height="480" viewBox="0 0 600 480" fill="none" xmlns="http://www.w3.org/2000/svg">
<path d="M344.121 364.696C341.778 361.827 338.512 359.862 334.897 359.862H325.672V404.138H333.052V366.319H334.897C337.95 366.319 340.431 368.8 340.431 371.853V404.138H347.81V371.853C347.81 368.8 350.292 366.319 353.345 366.319H355.19V404.138H362.569V359.862H353.345C349.729 359.862 346.464 361.836 344.121 364.696Z" fill="#663F4C"/>
<path d="M364.414 372.776V404.138H371.793V388.457H379.172V404.138H386.552V359.862H377.328C370.207 359.862 364.414 365.655 364.414 372.776ZM379.172 382H371.793V371.853C371.793 368.8 374.274 366.319 377.328 366.319H379.172V382Z" fill="#663F4C"/>
<path d="M397.621 359.862H388.397V404.138H395.776V388.457H397.621C400.674 388.457 403.155 390.938 403.155 393.991V404.138H410.534V394.914C410.534 390.726 408.524 387.322 405.424 385.228C408.524 383.135 410.534 379.731 410.534 375.543V372.776C410.534 365.655 404.742 359.862 397.621 359.862ZM403.155 376.466C403.155 379.519 400.674 382 397.621 382H395.776V366.319H397.621C400.674 366.319 403.155 368.8 403.155 371.853V376.466Z" fill="#663F4C"/>
<path d="M412.379 366.319H417.914V404.138H425.293V366.319H430.828V359.862H412.379V366.319Z" fill="#663F4C"/>
<path d="M440.052 359.862H432.672V404.138H440.052V359.862Z" fill="#663F4C"/>
<path d="M441.897 372.776V404.138H449.276V389.379H456.655V404.138H464.034V359.862H454.81C447.689 359.862 441.897 365.655 441.897 372.776ZM456.655 382.922H449.276V371.853C449.276 368.8 451.757 366.319 454.81 366.319H456.655V382.922Z" fill="#663F4C"/>
<path d="M480.638 365.064C477.871 361.854 474.033 359.862 469.569 359.862H467.724H465.879V404.138H473.259V367.841C477.059 369.409 480.638 373.855 480.638 378.31V380.155V404.138H488.017V359.862H480.638V365.064Z" fill="#663F4C"/>
<path d="M512 374.621V370.931C512 362.666 508.052 358.94 500.931 358.94C493.81 358.94 489.862 363.81 489.862 370.931C489.862 384.767 504.621 384.823 504.621 393.069V393.991C504.621 396.796 503.698 398.603 500.931 398.603C498.127 398.603 497.241 396.796 497.241 393.991V389.379H489.862V393.069C489.862 401.444 493.81 405.06 500.931 405.06C508.052 405.06 512 400.19 512 393.069C512 379.288 497.241 379.233 497.241 370.931V370.009C497.241 367.241 498.127 365.397 500.931 365.397C503.698 365.397 504.621 367.241 504.621 370.009V374.621H512Z" fill="#663F4C"/>
<path d="M216.828 359.862V365.028C214.06 361.799 210.186 359.862 205.759 359.862H202.069V404.138H209.448V367.887C213.23 369.455 216.828 373.883 216.828 378.31V404.138H224.207V359.862H216.828Z" fill="#663F4C"/>
<path d="M312.759 374.621V370.931C312.759 362.629 308.792 358.94 301.69 358.94C294.587 358.94 290.621 362.906 290.621 370.931C290.621 384.767 305.379 384.859 305.379 393.069V393.991C305.379 396.759 304.457 398.603 301.69 398.603C298.922 398.603 298 396.759 298 393.991V389.379H290.621V393.069C290.621 401.463 294.587 405.06 301.69 405.06C309.253 405.06 312.759 400.817 312.759 393.069C312.759 379.325 298 379.233 298 370.931V370.009C298 367.241 298.922 365.397 301.69 365.397C304.457 365.397 305.379 367.241 305.379 370.009V374.621H312.759Z" fill="#663F4C"/>
<path d="M226.052 359.862V391.224C226.052 398.327 231.863 404.138 238.966 404.138H246.345V397.681H238.966C235.922 397.681 233.431 395.191 233.431 392.147V381.078H244.5V374.621H233.431V366.319H246.345V359.862H226.052Z" fill="#663F4C"/>
<path d="M268.483 359.862V391.224C268.483 398.327 274.294 404.138 281.397 404.138H288.776V397.681H281.397C278.353 397.681 275.862 395.191 275.862 392.147V381.078H286.931V374.621H275.862V366.319H288.776V359.862H268.483Z" fill="#663F4C"/>
<path d="M155.948 359.862V391.224C155.948 398.327 161.759 404.138 168.862 404.138H176.241V397.681H168.862C165.818 397.681 163.328 395.191 163.328 392.147V381.078H174.397V374.621H163.328V366.319H176.241V359.862H155.948Z" fill="#663F4C"/>
<path d="M200.224 372.776C200.224 365.673 194.413 359.862 187.31 359.862H178.086V404.138H185.466V388.457H187.31C190.354 388.457 192.845 390.947 192.845 393.991V404.138H200.224V394.914C200.224 390.763 198.195 387.35 195.151 385.228C198.287 383.107 200.224 379.694 200.224 375.543V372.776ZM192.845 376.466C192.845 379.509 190.354 382 187.31 382H185.466V366.319H187.31C190.354 366.319 192.845 368.809 192.845 371.853V376.466Z" fill="#663F4C"/>
<path d="M266.638 359.862H248.19V366.319H253.724V404.138H261.103V366.319H266.638V359.862Z" fill="#663F4C"/>
<path fill-rule="evenodd" clip-rule="evenodd" d="M150.137 379.878C151.982 378.034 153.181 375.451 153.181 372.591V370.101C153.181 364.474 148.569 359.862 142.942 359.862H131.966V404.138H143.034C149.122 404.138 154.103 399.157 154.103 393.069V389.103C154.103 385.413 152.535 382.185 150.137 379.878ZM139.345 366.227H142.112C144.141 366.227 145.802 367.887 145.802 369.916V372.776C145.802 374.805 144.141 376.466 142.112 376.466H139.345V366.227ZM146.724 393.161C146.724 395.652 144.695 397.589 142.297 397.589H139.345V382.83H142.297C144.787 382.83 146.724 384.86 146.724 387.258V393.161Z" fill="#663F4C"/>
<path fill-rule="evenodd" clip-rule="evenodd" d="M102.172 379.971C104.016 378.126 105.216 375.543 105.216 372.684V359.862H97.8362V372.776C97.8362 374.805 96.1759 376.466 94.1466 376.466H91.3793V359.862H84V404.138H91.3793V382.922H94.331C96.8216 382.922 98.7586 384.952 98.7586 387.35V404.138H106.138V389.195C106.138 385.505 104.57 382.277 102.172 379.971Z" fill="#663F4C"/>
<path d="M122.741 359.862V393.991C122.741 396.759 121.819 398.603 119.052 398.603C116.284 398.603 115.362 396.759 115.362 393.991V359.862H107.983V393.069C107.983 401.463 111.949 405.06 119.052 405.06C127.261 405.06 130.121 400.172 130.121 393.069V359.862H122.741Z" fill="#663F4C"/>
<path d="M300 228H388V309H300V228Z" fill="#0F7FEF"/>
<path fill-rule="evenodd" clip-rule="evenodd" d="M320 240C321.657 240 323 241.391 323 243.107V294.893C323 296.609 321.657 298 320 298C318.343 298 317 296.609 317 294.893V243.107C317 241.391 318.343 240 320 240ZM336 240C337.657 240 339 241.391 339 243.107V294.893C339 296.609 337.657 298 336 298C334.343 298 333 296.609 333 294.893V243.107C333 241.391 334.343 240 336 240ZM355 243.107C355 241.391 353.657 240 352 240C350.343 240 349 241.391 349 243.107V294.893C349 296.609 350.343 298 352 298C353.657 298 355 296.609 355 294.893V243.107ZM368 240C369.657 240 371 241.391 371 243.107V294.893C371 296.609 369.657 298 368 298C366.343 298 365 296.609 365 294.893V243.107C365 241.391 366.343 240 368 240Z" fill="#0D639E"/>
<path d="M388 228H476V309H388V228Z" fill="#9FA628"/>
<path fill-rule="evenodd" clip-rule="evenodd" d="M403 293C403 291.343 404.391 290 406.107 290H457.893C459.609 290 461 291.343 461 293C461 294.657 459.609 296 457.893 296H406.107C404.391 296 403 294.657 403 293ZM403 277C403 275.343 404.391 274 406.107 274H457.893C459.609 274 461 275.343 461 277C461 278.657 459.609 280 457.893 280H406.107C404.391 280 403 278.657 403 277ZM406.107 258C404.391 258 403 259.343 403 261C403 262.657 404.391 264 406.107 264H457.893C459.609 264 461 262.657 461 261C461 259.343 459.609 258 457.893 258H406.107ZM403 245C403 243.343 404.391 242 406.107 242H457.893C459.609 242 461 243.343 461 245C461 246.657 459.609 248 457.893 248H406.107C404.391 248 403 246.657 403 245Z" fill="#777717"/>
<path d="M320 148H408V228H320V148Z" fill="#BF6C35"/>
<path fill-rule="evenodd" clip-rule="evenodd" d="M340 160C341.657 160 343 161.343 343 163V213C343 214.657 341.657 216 340 216C338.343 216 337 214.657 337 213V163C337 161.343 338.343 160 340 160ZM356 160C357.657 160 359 161.343 359 163V213C359 214.657 357.657 216 356 216C354.343 216 353 214.657 353 213V163C353 161.343 354.343 160 356 160ZM375 170.571C375 169.151 373.657 168 372 168C370.343 168 369 169.151 369 170.571V213.429C369 214.849 370.343 216 372 216C373.657 216 375 214.849 375 213.429V170.571ZM388 160C389.657 160 391 161.343 391 163V213C391 214.657 389.657 216 388 216C386.343 216 385 214.657 385 213V163C385 161.343 386.343 160 388 160Z" fill="#96491E"/>
<path d="M204.12 180L200.12 172L196.12 180L200.12 182L204.12 180Z" fill="#D5D3DD"/>
<path d="M192.12 180L188.12 172L184.12 180L188.12 182L192.12 180Z" fill="#D5D3DD"/>
<path d="M180.12 180L176.12 172L172.12 180L176.12 182L180.12 180Z" fill="#D5D3DD"/>
<path d="M168.12 180L164.12 172L160.12 180L164.12 182L168.12 180Z" fill="#D5D3DD"/>
<path d="M156.12 180L152.12 172L148.12 180L152.12 182L156.12 180Z" fill="#D5D3DD"/>
<path d="M198.12 164L194.12 172L190.12 164L194.12 162L198.12 164Z" fill="#D5D3DD"/>
<path d="M186.12 164L182.12 172L178.12 164L182.12 162L186.12 164Z" fill="#D5D3DD"/>
<path d="M174.12 164L170.12 172L166.12 164L170.12 162L174.12 164Z" fill="#D5D3DD"/>
<path d="M162.12 164L158.12 172L154.12 164L158.12 162L162.12 164Z" fill="#D5D3DD"/>
<path d="M136.12 247.4L112 234L136.12 220.6V247.4Z" fill="#E2CBB5"/>
<path d="M136.12 227.4L112 214L136.12 200.6V227.4Z" fill="#E2CBB5"/>
<path d="M136.12 207.4L112 194L136.12 180.6V207.4Z" fill="#E2CBB5"/>
<path d="M136.12 187.4L112 174L136.12 160.6V187.4Z" fill="#E2CBB5"/>
<path fill-rule="evenodd" clip-rule="evenodd" d="M132 128V248V252V268H157.3H172H196C198.21 268 200 269.79 200 272V288H242.83L228 273.17V268C228 254.08 217.6 242.25 204 240.29V240H255.7L244.12 230.73L258.32 226L244.12 221.27L255.7 212H204V208H255.7L244.12 198.73L258.32 194L244.12 189.27L255.7 180H152C147.59 180 144 176.41 144 172C144 167.59 147.59 164 152 164H204V128C204 123.823 203.341 120.136 202.074 116.984C199.868 112.081 195.919 108.132 191.016 105.926C187.864 104.659 184.177 104 180 104H164H159H156C151.823 104 148.136 104.659 144.984 105.926C140.081 108.132 136.132 112.081 133.926 116.984C132.659 120.136 132 123.823 132 128Z" fill="#9FA628"/>
<path d="M156.12 155C161.091 155 165.12 150.971 165.12 146C165.12 141.029 161.091 137 156.12 137C151.149 137 147.12 141.029 147.12 146C147.12 150.971 151.149 155 156.12 155Z" fill="white"/>
<path d="M156.12 151C158.881 151 161.12 148.761 161.12 146C161.12 143.239 158.881 141 156.12 141C153.359 141 151.12 143.239 151.12 146C151.12 148.761 153.359 151 156.12 151Z" fill="#BF6C35"/>
<path d="M180.12 155C185.091 155 189.12 150.971 189.12 146C189.12 141.029 185.091 137 180.12 137C175.149 137 171.12 141.029 171.12 146C171.12 150.971 175.149 155 180.12 155Z" fill="white"/>
<path d="M180.12 151C182.881 151 185.12 148.761 185.12 146C185.12 143.239 182.881 141 180.12 141C177.359 141 175.12 143.239 175.12 146C175.12 148.761 177.359 151 180.12 151Z" fill="#BF6C35"/>
<path d="M144 268L143.83 240H136V240.29C122.4 242.25 112 254.08 112 268V273.17L97.17 288H140V272C140 269.79 141.79 268 144 268Z" fill="#9FA628"/>
<path d="M203.995 112H131.995L128.155 119.08C128.014 119.361 127.968 119.68 128.022 119.989C128.076 120.299 128.228 120.583 128.455 120.8C131.365 123.56 142.805 132.56 167.995 131.97C193.195 132.56 204.635 123.56 207.535 120.8C207.762 120.583 207.915 120.3 207.971 119.991C208.027 119.681 207.982 119.362 207.845 119.08L203.995 112Z" fill="#0F7FEF"/>
<path d="M212.311 83.03C211.351 81.4802 209.961 80.2433 208.311 79.47L171.521 64.77C170.426 64.2762 169.241 64.014 168.041 64H167.971C166.77 64.014 165.585 64.2762 164.491 64.77L127.681 79.51C126.033 80.2876 124.644 81.5236 123.681 83.07C122.43 85.0716 121.852 87.4209 122.032 89.7743C122.212 92.1277 123.14 94.3618 124.681 96.15L131.971 104L167.871 104.06H168.071L203.971 104L211.261 96.11C212.818 94.3319 213.761 92.0996 213.95 89.7437C214.139 87.3878 213.564 85.0337 212.311 83.03V83.03Z" fill="#E8E8E8"/>
<path d="M177.981 79.3157C177.822 78.8808 177.509 78.521 177.103 78.3055L168.732 74.1439C168.516 74.0439 168.281 73.9955 168.044 74.0024C167.813 73.9925 167.581 74.0129 167.355 74.063L158.984 78.255C158.781 78.3503 158.603 78.4907 158.461 78.6655C158.319 78.8404 158.218 79.0454 158.166 79.2651L156.031 88.5885C155.986 88.8245 155.99 89.0671 156.042 89.3016C156.093 89.536 156.191 89.7574 156.33 89.9522L162.117 97.3967C162.455 97.7435 162.905 97.9551 163.384 97.9927H172.603C172.847 98.0183 173.092 97.9763 173.314 97.8713C173.535 97.7663 173.724 97.6023 173.861 97.3967L179.658 89.9522C179.925 89.5521 180.042 89.0683 179.987 88.5885L177.981 79.3157Z" fill="#0F7FEF"/>
<rect x="132" y="104" width="72" height="8" fill="#004B89"/>
<path d="M311.094 203.35C310.924 203.35 310.744 203.35 310.744 203.17C310.744 202.99 310.384 202.99 310.034 202.99C309.331 202.841 308.612 202.78 307.894 202.81C307.528 202.838 307.161 202.777 306.824 202.63H306.644C304.597 202.448 302.57 202.09 300.584 201.56C300.301 201.454 300.043 201.289 299.829 201.075C299.616 200.861 299.45 200.603 299.344 200.32V200.32L297.914 199.96C298.568 194.731 298.327 189.428 297.204 184.28C295.942 179.1 293.833 174.164 290.964 169.67L292.034 168.6V168.43C292.02 167.846 292.211 167.277 292.574 166.82C294.122 165.474 295.797 164.282 297.574 163.26V163.26L298.634 162.73C299.354 162.37 299.884 162.01 300.634 161.66C300.814 161.48 300.994 161.48 301.174 161.3C301.354 161.12 301.174 161.12 301.174 160.94C301.56 160.666 301.885 160.317 302.131 159.913C302.376 159.51 302.538 159.06 302.604 158.592C302.67 158.124 302.641 157.648 302.517 157.192C302.393 156.736 302.178 156.31 301.884 155.94C301.582 155.566 301.204 155.261 300.775 155.045C300.345 154.83 299.875 154.709 299.394 154.69C298.488 154.713 297.612 155.024 296.894 155.58V155.58L296.714 155.76C296.544 155.94 296.364 156.11 296.184 156.11C295.661 156.603 295.183 157.142 294.754 157.72C294.584 158.07 294.224 158.25 294.044 158.43C292.733 159.919 291.237 161.236 289.594 162.35C289.247 162.577 288.848 162.714 288.434 162.75C288.183 162.782 287.93 162.717 287.724 162.57H287.544L286.114 163.46C284.694 162.03 283.114 160.61 281.664 159.18C274.952 154.005 266.934 150.799 258.504 149.92L258.324 148.49V148.67C257.873 148.313 257.558 147.812 257.434 147.25C257.38 145.223 257.5 143.196 257.794 141.19V141.01C257.794 140.65 257.964 140.3 257.964 139.94C258.144 139.23 258.144 138.52 258.324 137.8V136.75C258.387 135.863 258.113 134.986 257.557 134.292C257.001 133.599 256.203 133.141 255.324 133.01C254.761 132.968 254.196 133.06 253.675 133.277C253.154 133.494 252.691 133.831 252.324 134.26C251.987 134.582 251.716 134.968 251.529 135.395C251.342 135.823 251.242 136.283 251.234 136.75V136.75V137.65C251.266 138.372 251.387 139.087 251.594 139.78C251.74 140.116 251.802 140.484 251.774 140.85V141.03C252.079 143.035 252.199 145.063 252.134 147.09C252.013 147.655 251.694 148.159 251.234 148.51V148.87L251.064 150.29C249.064 150.47 247.144 150.83 245.004 151.19C236.605 153.028 228.964 157.377 223.094 163.66L222.024 162.94H221.844C221.664 162.94 221.484 163.12 221.134 163.12C220.756 163.083 220.391 162.963 220.064 162.77C218.456 161.542 216.963 160.169 215.604 158.67C215.418 158.387 215.177 158.146 214.894 157.96C214.364 157.42 214.004 156.89 213.474 156.35C213.294 156.17 213.114 156.17 212.934 156L212.754 155.82C212.042 155.263 211.169 154.951 210.264 154.93C209.774 154.89 209.283 154.985 208.843 155.203C208.402 155.422 208.029 155.756 207.764 156.17C207.259 156.949 207.054 157.885 207.186 158.805C207.319 159.724 207.78 160.564 208.484 161.17V161.17C208.654 161.17 208.654 161.35 208.654 161.35C208.654 161.35 209.014 161.71 209.194 161.71C209.842 162.101 210.509 162.459 211.194 162.78L212.264 163.31C214.067 164.293 215.746 165.488 217.264 166.87C217.477 167.075 217.636 167.329 217.728 167.609C217.821 167.89 217.843 168.188 217.794 168.48V168.3L218.864 169.37C218.684 169.72 218.504 169.9 218.334 170.26C212.768 178.916 210.55 189.305 212.094 199.48L210.664 199.83C210.666 199.853 210.662 199.876 210.654 199.898C210.646 199.92 210.634 199.94 210.618 199.956C210.602 199.973 210.583 199.987 210.562 199.996C210.541 200.005 210.518 200.01 210.494 200.01C210.218 200.547 209.781 200.984 209.244 201.26C207.261 201.801 205.233 202.159 203.184 202.33C202.819 202.303 202.453 202.362 202.114 202.5C201.404 202.5 200.694 202.68 199.984 202.68C199.804 202.68 199.624 202.86 199.264 202.86C199.084 202.86 199.084 202.86 198.914 203.04C198.455 203.115 198.015 203.283 197.622 203.531C197.228 203.78 196.888 204.105 196.623 204.487C196.357 204.869 196.17 205.301 196.075 205.757C195.979 206.212 195.975 206.683 196.064 207.14V207.14C196.256 207.915 196.722 208.595 197.377 209.053C198.032 209.511 198.83 209.716 199.624 209.63C199.932 209.658 200.242 209.595 200.514 209.45C200.694 209.45 200.694 209.45 200.694 209.27C200.694 209.09 201.224 209.27 201.404 209.27C202.083 209.068 202.75 208.831 203.404 208.56C203.73 208.363 204.096 208.244 204.474 208.21H204.654C206.524 207.473 208.459 206.917 210.434 206.55H210.604C211.134 206.533 211.648 206.727 212.034 207.09C212.058 207.088 212.081 207.092 212.103 207.1C212.124 207.108 212.144 207.12 212.161 207.136C212.178 207.152 212.191 207.171 212.201 207.192C212.21 207.214 212.214 207.237 212.214 207.26V207.26L213.814 207.09C216.473 215.353 221.569 222.618 228.434 227.93C229.923 229.163 231.535 230.239 233.244 231.14L232.354 232.38C232.354 232.427 232.373 232.473 232.407 232.507C232.441 232.541 232.487 232.56 232.534 232.56C232.69 232.826 232.786 233.123 232.817 233.43C232.848 233.737 232.813 234.047 232.714 234.34C231.937 236.153 230.983 237.885 229.864 239.51V239.69C229.681 240.028 229.437 240.33 229.144 240.58C228.794 240.94 228.434 241.65 227.904 242.36C227.724 242.54 227.724 242.72 227.544 242.9C227.544 242.923 227.54 242.946 227.531 242.967C227.521 242.988 227.508 243.008 227.491 243.024C227.474 243.04 227.454 243.052 227.433 243.06C227.411 243.068 227.388 243.071 227.364 243.07V243.07C226.945 243.903 226.86 244.864 227.125 245.758C227.391 246.652 227.988 247.411 228.794 247.88C229.179 248.082 229.601 248.204 230.034 248.24C230.738 248.213 231.422 248.001 232.017 247.625C232.612 247.249 233.098 246.723 233.424 246.1C233.424 246.052 233.443 246.006 233.477 245.972C233.511 245.939 233.557 245.92 233.604 245.92C233.604 245.75 233.774 245.57 233.954 245.39C234.134 244.68 234.494 244.14 234.674 243.39L235.024 242.32C235.615 240.408 236.392 238.559 237.344 236.8C237.685 236.295 238.185 235.918 238.764 235.73C238.944 235.73 238.944 235.73 238.944 235.55L239.654 234.13C244.595 236.049 249.854 237.016 255.154 236.98C258.403 237.003 261.64 236.583 264.774 235.73C266.705 235.298 268.611 234.764 270.484 234.13L271.194 235.37C271.374 235.37 271.374 235.37 271.374 235.55C271.95 235.745 272.448 236.12 272.794 236.62C273.747 238.379 274.524 240.228 275.114 242.14V242.32L275.464 243.39C275.59 244.092 275.833 244.768 276.184 245.39C276.354 245.57 276.354 245.75 276.534 245.92C276.534 245.967 276.553 246.013 276.587 246.047C276.621 246.081 276.667 246.1 276.714 246.1C277.041 246.723 277.527 247.249 278.122 247.625C278.717 248.001 279.401 248.213 280.104 248.24C280.595 248.205 281.076 248.083 281.524 247.88C281.925 247.689 282.277 247.41 282.554 247.064C282.832 246.717 283.027 246.312 283.124 245.88C283.333 244.992 283.274 244.063 282.954 243.21V243.21C282.954 243.162 282.935 243.116 282.902 243.082C282.868 243.049 282.822 243.03 282.774 243.03C282.774 242.86 282.594 242.68 282.414 242.5C282.107 241.837 281.684 241.234 281.164 240.72C280.991 240.378 280.749 240.075 280.454 239.83V239.47C279.262 237.892 278.302 236.15 277.604 234.3C277.501 234.008 277.463 233.697 277.494 233.389C277.525 233.082 277.624 232.785 277.784 232.52C277.784 232.472 277.803 232.426 277.837 232.392C277.871 232.359 277.917 232.34 277.964 232.34V232.34L277.424 230.92C286.548 225.453 293.383 216.867 296.664 206.75L298.094 206.93C298.142 206.93 298.188 206.911 298.222 206.877C298.255 206.843 298.274 206.797 298.274 206.75C298.66 206.394 299.17 206.203 299.694 206.22H299.874C301.823 206.561 303.733 207.097 305.574 207.82H305.754C306.079 208.019 306.445 208.142 306.824 208.18C307.456 208.549 308.127 208.847 308.824 209.07C309.004 209.07 309.184 209.24 309.534 209.24C309.714 209.24 309.714 209.24 309.894 209.42C310.167 209.566 310.476 209.629 310.784 209.6C311.559 209.589 312.312 209.345 312.947 208.901C313.581 208.457 314.068 207.833 314.344 207.11C314.273 206.227 313.924 205.39 313.347 204.718C312.771 204.046 311.996 203.574 311.134 203.37L311.094 203.35ZM259.614 197.82L254.804 200.14L249.994 197.82L248.744 192.66L252.134 188.38H257.434L260.814 192.66L259.614 197.82ZM288.614 186.24C289.473 189.918 289.713 193.713 289.324 197.47L272.434 192.66C272.058 192.569 271.704 192.404 271.392 192.174C271.08 191.944 270.818 191.655 270.619 191.322C270.421 190.99 270.291 190.621 270.237 190.238C270.183 189.854 270.206 189.464 270.304 189.09C270.43 188.622 270.675 188.195 271.014 187.85L284.374 175.75C286.342 179.001 287.786 182.54 288.654 186.24H288.614ZM278.994 169.14L264.434 179.47C263.807 179.852 263.062 179.99 262.34 179.859C261.617 179.728 260.968 179.337 260.514 178.76C260.339 178.603 260.199 178.411 260.106 178.195C260.012 177.979 259.968 177.745 259.974 177.51L258.914 159.51C266.526 160.325 273.629 163.719 279.044 169.13L278.994 169.14ZM246.744 160.05L250.304 159.34L249.434 177.16C249.396 177.929 249.063 178.654 248.504 179.185C247.946 179.715 247.205 180.011 246.434 180.01C245.943 179.975 245.462 179.853 245.014 179.65L230.224 169.14C234.82 164.667 240.543 161.525 246.784 160.05H246.744ZM225.054 175.75L238.234 187.51C238.532 187.752 238.778 188.052 238.957 188.391C239.137 188.73 239.247 189.101 239.281 189.484C239.314 189.866 239.271 190.251 239.153 190.616C239.035 190.981 238.845 191.319 238.594 191.61C238.435 191.853 238.225 192.059 237.978 192.213C237.731 192.366 237.453 192.464 237.164 192.5L219.884 197.5C219.354 189.892 221.157 182.304 225.054 175.75V175.75ZM222.054 205.86L239.684 202.86C240.379 202.826 241.062 203.041 241.612 203.466C242.162 203.892 242.542 204.499 242.684 205.18C242.788 205.471 242.826 205.782 242.794 206.09C242.763 206.398 242.664 206.695 242.504 206.96L235.734 223.35C229.382 219.159 224.569 213.012 222.024 205.84L222.054 205.86ZM262.434 227.93C259.921 228.502 257.352 228.8 254.774 228.82C250.965 228.764 247.184 228.165 243.544 227.04L252.274 211.18C252.685 210.652 253.271 210.29 253.927 210.159C254.583 210.029 255.263 210.139 255.844 210.47C256.361 210.834 256.837 211.253 257.264 211.72V211.72L265.814 227.22C264.674 227.388 263.546 227.625 262.434 227.93V227.93ZM284.164 212.43C281.451 216.753 277.797 220.407 273.474 223.12L266.534 206.37C266.355 205.708 266.418 205.004 266.711 204.385C267.004 203.765 267.509 203.271 268.134 202.99C268.645 202.785 269.185 202.663 269.734 202.63L287.554 205.63C286.766 208.046 285.635 210.336 284.194 212.43H284.164Z" fill="#0F7FEF"/>
<path d="M244.624 192.493C244.834 187.19 249.194 183 254.5 183V183C259.806 183 264.166 187.19 264.376 192.493L268 284H241L244.624 192.493Z" fill="#004B89"/>
<path d="M259.12 197.58L254.64 199.73L250.16 197.58L249 192.77L252.15 188.78H257.13L260.28 192.77L259.12 197.58Z" fill="#0F7FEF"/>
<rect x="237" y="280" width="35" height="8" fill="#0F7FEF"/>
<path fill-rule="evenodd" clip-rule="evenodd" d="M204 212V240H255.7L244.12 230.73L258.32 226L244.12 221.27L255.7 212H204Z" fill="#9FA628"/>
<path d="M416.928 268C411.955 268 407.161 269.853 403.48 273.197L395.76 280.21C390.239 285.224 383.048 288.001 375.59 288H84L96.9 316.09C98.9809 321.917 102.813 326.957 107.87 330.522C112.927 334.086 118.963 336 125.15 336H441.15C448.749 336 456.065 333.115 461.62 327.93L508.8 290.93C509.803 289.995 510.603 288.863 511.15 287.606C511.697 286.348 511.98 284.991 511.98 283.62V268H416.928Z" fill="#663F4C"/>
<path d="M105 328C110.54 333.136 117.815 335.993 125.37 336H441.37C448.935 336.001 456.222 333.144 461.77 328H105Z" fill="#BF6C35"/>
<circle cx="416" cy="298" r="8" fill="#E8E8E8"/>
<circle cx="440" cy="298" r="8" fill="#E8E8E8"/>
<circle cx="464" cy="298" r="8" fill="#E8E8E8"/>
<path d="M458 146V149C458 150.66 459.34 152 461 152C462.66 152 464 150.66 464 149V146H458Z" fill="#D5D3DD"/>
<path d="M446 146V149C446 150.66 447.34 152 449 152C450.66 152 452 150.66 452 149V146H446Z" fill="#D5D3DD"/>
<path d="M434 146V149C434 150.66 435.34 152 437 152C438.66 152 440 150.66 440 149V146H434Z" fill="#D5D3DD"/>
<path d="M422 146V149C422 150.66 423.34 152 425 152C426.66 152 428 150.66 428 149V146H422Z" fill="#D5D3DD"/>
<path d="M452 166V163C452 161.34 453.34 160 455 160C456.66 160 458 161.34 458 163V166H452Z" fill="#D5D3DD"/>
<path d="M440 166V163C440 161.34 441.34 160 443 160C444.66 160 446 161.34 446 163V166H440Z" fill="#D5D3DD"/>
<path d="M428 166V163C428 161.34 429.34 160 431 160C432.66 160 434 161.34 434 163V166H428Z" fill="#D5D3DD"/>
<path d="M416 166V163C416 161.34 417.34 160 419 160C420.66 160 422 161.34 422 163V166H416Z" fill="#D5D3DD"/>
<path d="M468 228H396V220H392C376.56 220 364 207.44 364 192V164C364 161.79 365.79 160 368 160C370.21 160 372 161.79 372 164V165C372 165.55 372.45 166 373 166C373.55 166 374 165.55 374 165V164C374 161.79 375.79 160 378 160C380.21 160 382 161.79 382 164V165C382 165.55 382.45 166 383 166C383.55 166 384 165.55 384 165V164C384 161.79 385.79 160 388 160C390.21 160 392 161.79 392 164V188C392 190.21 393.79 192 396 192V141.74C392.55 140.85 390 137.73 390 134C390 130.27 392.55 127.15 396 126.26V116L402 109L408 114L414 108L420 114L426 108L432 114L438 108L444 114L450 108L456 114L462 109L468 116V126.26C471.45 127.15 474 130.27 474 134C474 137.73 471.45 140.85 468 141.74V148H416C411.59 148 408 151.59 408 156C408 160.41 411.59 164 416 164H468V192C470.21 192 472 190.21 472 188V164C472 161.79 473.79 160 476 160C478.21 160 480 161.79 480 164V165C480 165.55 480.45 166 481 166C481.55 166 482 165.55 482 165V164C482 161.79 483.79 160 486 160C488.21 160 490 161.79 490 164V165C490 165.55 490.45 166 491 166C491.55 166 492 165.55 492 165V164C492 161.79 493.79 160 496 160C498.21 160 500 161.79 500 164V192C500 207.44 487.44 220 472 220H468V228Z" fill="#E2CBB5"/>
<path d="M444 88H420C404.75 88 396 96.75 396 112V116L402 110L408 116L414 110L420 116L426 110L432 116L438 110L444 116L450 110L456 116L462 110L468 116V112C468 96.75 459.25 88 444 88Z" fill="#BF6C35"/>
<path d="M420 139C424.971 139 429 134.971 429 130C429 125.029 424.971 121 420 121C415.029 121 411 125.029 411 130C411 134.971 415.029 139 420 139Z" fill="white"/>
<path d="M420 135C422.761 135 425 132.761 425 130C425 127.239 422.761 125 420 125C417.239 125 415 127.239 415 130C415 132.761 417.239 135 420 135Z" fill="#9FA628"/>
<path d="M444 139C448.971 139 453 134.971 453 130C453 125.029 448.971 121 444 121C439.029 121 435 125.029 435 130C435 134.971 439.029 139 444 139Z" fill="white"/>
<path d="M444 135C446.761 135 449 132.761 449 130C449 127.239 446.761 125 444 125C441.239 125 439 127.239 439 130C439 132.761 441.239 135 444 135Z" fill="#9FA628"/>
</svg>
